<mxfile host="Electron" modified="2023-08-13T09:45:08.097Z" agent="Mozilla/5.0 (Macintosh; Intel Mac OS X 10_15_7) AppleWebKit/537.36 (KHTML, like Gecko) draw.io/21.6.8 Chrome/114.0.5735.289 Electron/25.5.0 Safari/537.36" etag="xHmovkGZ-hSXuHE4rzt5" version="21.6.8" type="device">
  <diagram id="sCrCUdc8x4Oq8jGEpbN9" name="第 1 页">
    <mxGraphModel dx="1941" dy="999" grid="1" gridSize="10" guides="1" tooltips="1" connect="1" arrows="1" fold="1" page="1" pageScale="1" pageWidth="827" pageHeight="1169" math="0" shadow="0">
      <root>
        <mxCell id="0" />
        <mxCell id="1" parent="0" />
        <mxCell id="Zs48E57jECgjdJ1TAyNr-6" style="edgeStyle=none;rounded=0;orthogonalLoop=1;jettySize=auto;html=1;exitX=0.5;exitY=1;exitDx=0;exitDy=0;entryX=0;entryY=0;entryDx=0;entryDy=0;startArrow=classic;startFill=1;" parent="1" source="Zs48E57jECgjdJ1TAyNr-1" target="Zs48E57jECgjdJ1TAyNr-3" edge="1">
          <mxGeometry relative="1" as="geometry" />
        </mxCell>
        <mxCell id="Zs48E57jECgjdJ1TAyNr-7" style="edgeStyle=none;rounded=0;orthogonalLoop=1;jettySize=auto;html=1;exitX=1;exitY=0.5;exitDx=0;exitDy=0;entryX=0;entryY=0.5;entryDx=0;entryDy=0;startArrow=classic;startFill=1;" parent="1" source="Zs48E57jECgjdJ1TAyNr-1" target="Zs48E57jECgjdJ1TAyNr-2" edge="1">
          <mxGeometry relative="1" as="geometry" />
        </mxCell>
        <mxCell id="Zs48E57jECgjdJ1TAyNr-1" value="采购管理" style="ellipse;whiteSpace=wrap;html=1;" parent="1" vertex="1">
          <mxGeometry x="170" y="70" width="150" height="40" as="geometry" />
        </mxCell>
        <mxCell id="Zs48E57jECgjdJ1TAyNr-2" value="销售管理" style="ellipse;whiteSpace=wrap;html=1;" parent="1" vertex="1">
          <mxGeometry x="404" y="70" width="150" height="40" as="geometry" />
        </mxCell>
        <mxCell id="Zs48E57jECgjdJ1TAyNr-5" style="rounded=0;orthogonalLoop=1;jettySize=auto;html=1;exitX=1;exitY=0;exitDx=0;exitDy=0;entryX=0.46;entryY=1;entryDx=0;entryDy=0;entryPerimeter=0;startArrow=classic;startFill=1;" parent="1" source="Zs48E57jECgjdJ1TAyNr-3" target="Zs48E57jECgjdJ1TAyNr-2" edge="1">
          <mxGeometry relative="1" as="geometry" />
        </mxCell>
        <mxCell id="Zs48E57jECgjdJ1TAyNr-3" value="存货管理" style="ellipse;whiteSpace=wrap;html=1;" parent="1" vertex="1">
          <mxGeometry x="280" y="170" width="150" height="40" as="geometry" />
        </mxCell>
        <mxCell id="Zs48E57jECgjdJ1TAyNr-8" value="Purchase" style="swimlane;fontStyle=1;align=center;verticalAlign=top;childLayout=stackLayout;horizontal=1;startSize=26;horizontalStack=0;resizeParent=1;resizeParentMax=0;resizeLast=0;collapsible=1;marginBottom=0;" parent="1" vertex="1">
          <mxGeometry x="120" y="375" width="230" height="80" as="geometry" />
        </mxCell>
        <mxCell id="Zs48E57jECgjdJ1TAyNr-10" value="" style="line;strokeWidth=1;fillColor=none;align=left;verticalAlign=middle;spacingTop=-1;spacingLeft=3;spacingRight=3;rotatable=0;labelPosition=right;points=[];portConstraint=eastwest;" parent="Zs48E57jECgjdJ1TAyNr-8" vertex="1">
          <mxGeometry y="26" width="230" height="8" as="geometry" />
        </mxCell>
        <mxCell id="Zs48E57jECgjdJ1TAyNr-11" value="+ void buyMilkPowder(int number)&#xa;+ void refuseBuyMilkPowder()" style="text;strokeColor=none;fillColor=none;align=left;verticalAlign=top;spacingLeft=4;spacingRight=4;overflow=hidden;rotatable=0;points=[[0,0.5],[1,0.5]];portConstraint=eastwest;" parent="Zs48E57jECgjdJ1TAyNr-8" vertex="1">
          <mxGeometry y="34" width="230" height="46" as="geometry" />
        </mxCell>
        <mxCell id="Zs48E57jECgjdJ1TAyNr-12" value="Sale" style="swimlane;fontStyle=1;align=center;verticalAlign=top;childLayout=stackLayout;horizontal=1;startSize=26;horizontalStack=0;resizeParent=1;resizeParentMax=0;resizeLast=0;collapsible=1;marginBottom=0;" parent="1" vertex="1">
          <mxGeometry x="480" y="370" width="230" height="90" as="geometry" />
        </mxCell>
        <mxCell id="Zs48E57jECgjdJ1TAyNr-13" value="" style="line;strokeWidth=1;fillColor=none;align=left;verticalAlign=middle;spacingTop=-1;spacingLeft=3;spacingRight=3;rotatable=0;labelPosition=right;points=[];portConstraint=eastwest;" parent="Zs48E57jECgjdJ1TAyNr-12" vertex="1">
          <mxGeometry y="26" width="230" height="8" as="geometry" />
        </mxCell>
        <mxCell id="Zs48E57jECgjdJ1TAyNr-14" value="+ void sellMilkPowder(int number)&#xa;+ int getSaleStatus()&#xa;+ void offSale()" style="text;strokeColor=none;fillColor=none;align=left;verticalAlign=top;spacingLeft=4;spacingRight=4;overflow=hidden;rotatable=0;points=[[0,0.5],[1,0.5]];portConstraint=eastwest;" parent="Zs48E57jECgjdJ1TAyNr-12" vertex="1">
          <mxGeometry y="34" width="230" height="56" as="geometry" />
        </mxCell>
        <mxCell id="Zs48E57jECgjdJ1TAyNr-23" style="edgeStyle=none;rounded=0;orthogonalLoop=1;jettySize=auto;html=1;exitX=0.75;exitY=0;exitDx=0;exitDy=0;entryX=0.091;entryY=1;entryDx=0;entryDy=0;entryPerimeter=0;startArrow=classic;startFill=1;" parent="1" source="Zs48E57jECgjdJ1TAyNr-18" target="Zs48E57jECgjdJ1TAyNr-14" edge="1">
          <mxGeometry relative="1" as="geometry" />
        </mxCell>
        <mxCell id="Zs48E57jECgjdJ1TAyNr-25" style="edgeStyle=none;rounded=0;orthogonalLoop=1;jettySize=auto;html=1;exitX=0.25;exitY=0;exitDx=0;exitDy=0;entryX=0.865;entryY=1.043;entryDx=0;entryDy=0;entryPerimeter=0;startArrow=classic;startFill=1;" parent="1" source="Zs48E57jECgjdJ1TAyNr-18" target="Zs48E57jECgjdJ1TAyNr-11" edge="1">
          <mxGeometry relative="1" as="geometry" />
        </mxCell>
        <mxCell id="Zs48E57jECgjdJ1TAyNr-18" value="Stock" style="swimlane;fontStyle=1;align=center;verticalAlign=top;childLayout=stackLayout;horizontal=1;startSize=26;horizontalStack=0;resizeParent=1;resizeParentMax=0;resizeLast=0;collapsible=1;marginBottom=0;" parent="1" vertex="1">
          <mxGeometry x="230" y="570" width="360" height="130" as="geometry" />
        </mxCell>
        <mxCell id="Zs48E57jECgjdJ1TAyNr-19" value="- static int MILK_POWDER_NUMBER = 100" style="text;strokeColor=none;fillColor=none;align=left;verticalAlign=top;spacingLeft=4;spacingRight=4;overflow=hidden;rotatable=0;points=[[0,0.5],[1,0.5]];portConstraint=eastwest;" parent="Zs48E57jECgjdJ1TAyNr-18" vertex="1">
          <mxGeometry y="26" width="360" height="26" as="geometry" />
        </mxCell>
        <mxCell id="Zs48E57jECgjdJ1TAyNr-20" value="" style="line;strokeWidth=1;fillColor=none;align=left;verticalAlign=middle;spacingTop=-1;spacingLeft=3;spacingRight=3;rotatable=0;labelPosition=right;points=[];portConstraint=eastwest;" parent="Zs48E57jECgjdJ1TAyNr-18" vertex="1">
          <mxGeometry y="52" width="360" height="8" as="geometry" />
        </mxCell>
        <mxCell id="Zs48E57jECgjdJ1TAyNr-21" value="+ void increase(int number)&#xa;+ void decrease(int number)&#xa;+ int getStockNumber()&#xa;+ void clearStock()" style="text;strokeColor=none;fillColor=none;align=left;verticalAlign=top;spacingLeft=4;spacingRight=4;overflow=hidden;rotatable=0;points=[[0,0.5],[1,0.5]];portConstraint=eastwest;" parent="Zs48E57jECgjdJ1TAyNr-18" vertex="1">
          <mxGeometry y="60" width="360" height="70" as="geometry" />
        </mxCell>
        <mxCell id="Zs48E57jECgjdJ1TAyNr-22" style="edgeStyle=none;rounded=0;orthogonalLoop=1;jettySize=auto;html=1;exitX=1;exitY=0.5;exitDx=0;exitDy=0;startArrow=classic;startFill=1;" parent="1" source="Zs48E57jECgjdJ1TAyNr-11" target="Zs48E57jECgjdJ1TAyNr-14" edge="1">
          <mxGeometry relative="1" as="geometry" />
        </mxCell>
        <mxCell id="Zs48E57jECgjdJ1TAyNr-29" style="edgeStyle=none;rounded=0;orthogonalLoop=1;jettySize=auto;html=1;exitX=0.5;exitY=0;exitDx=0;exitDy=0;exitPerimeter=0;entryX=0.174;entryY=0.978;entryDx=0;entryDy=0;entryPerimeter=0;startArrow=none;startFill=0;dashed=1;endArrow=none;endFill=0;" parent="1" source="Zs48E57jECgjdJ1TAyNr-28" target="Zs48E57jECgjdJ1TAyNr-11" edge="1">
          <mxGeometry relative="1" as="geometry" />
        </mxCell>
        <mxCell id="Zs48E57jECgjdJ1TAyNr-28" value="采购管理" style="shape=note;whiteSpace=wrap;html=1;backgroundOutline=1;darkOpacity=0.05;size=8;" parent="1" vertex="1">
          <mxGeometry x="120" y="480" width="80" height="20" as="geometry" />
        </mxCell>
        <mxCell id="Zs48E57jECgjdJ1TAyNr-32" style="edgeStyle=none;rounded=0;orthogonalLoop=1;jettySize=auto;html=1;exitX=0.5;exitY=0;exitDx=0;exitDy=0;exitPerimeter=0;entryX=0.826;entryY=1;entryDx=0;entryDy=0;entryPerimeter=0;dashed=1;startArrow=none;startFill=0;endArrow=none;endFill=0;" parent="1" source="Zs48E57jECgjdJ1TAyNr-30" target="Zs48E57jECgjdJ1TAyNr-14" edge="1">
          <mxGeometry relative="1" as="geometry" />
        </mxCell>
        <mxCell id="Zs48E57jECgjdJ1TAyNr-30" value="销售管理" style="shape=note;whiteSpace=wrap;html=1;backgroundOutline=1;darkOpacity=0.05;size=8;" parent="1" vertex="1">
          <mxGeometry x="630" y="480" width="80" height="20" as="geometry" />
        </mxCell>
        <mxCell id="Zs48E57jECgjdJ1TAyNr-33" style="edgeStyle=none;rounded=0;orthogonalLoop=1;jettySize=auto;html=1;exitX=0;exitY=0.5;exitDx=0;exitDy=0;exitPerimeter=0;entryX=1;entryY=0.5;entryDx=0;entryDy=0;dashed=1;startArrow=none;startFill=0;endArrow=none;endFill=0;" parent="1" source="Zs48E57jECgjdJ1TAyNr-31" target="Zs48E57jECgjdJ1TAyNr-21" edge="1">
          <mxGeometry relative="1" as="geometry" />
        </mxCell>
        <mxCell id="Zs48E57jECgjdJ1TAyNr-31" value="存货管理" style="shape=note;whiteSpace=wrap;html=1;backgroundOutline=1;darkOpacity=0.05;size=8;" parent="1" vertex="1">
          <mxGeometry x="630" y="655" width="80" height="20" as="geometry" />
        </mxCell>
        <mxCell id="59_qnsPRVaMqmeDLjK7_-13" style="edgeStyle=orthogonalEdgeStyle;rounded=0;orthogonalLoop=1;jettySize=auto;html=1;exitX=0.5;exitY=0;exitDx=0;exitDy=0;entryX=0.5;entryY=0;entryDx=0;entryDy=0;startArrow=none;startFill=0;" parent="1" source="59_qnsPRVaMqmeDLjK7_-3" target="59_qnsPRVaMqmeDLjK7_-6" edge="1">
          <mxGeometry relative="1" as="geometry" />
        </mxCell>
        <mxCell id="59_qnsPRVaMqmeDLjK7_-16" style="edgeStyle=none;rounded=0;orthogonalLoop=1;jettySize=auto;html=1;exitX=1;exitY=1;exitDx=0;exitDy=0;entryX=0.067;entryY=0.25;entryDx=0;entryDy=0;entryPerimeter=0;startArrow=none;startFill=0;" parent="1" source="59_qnsPRVaMqmeDLjK7_-3" target="59_qnsPRVaMqmeDLjK7_-9" edge="1">
          <mxGeometry relative="1" as="geometry" />
        </mxCell>
        <mxCell id="59_qnsPRVaMqmeDLjK7_-17" style="edgeStyle=none;rounded=0;orthogonalLoop=1;jettySize=auto;html=1;exitX=0.5;exitY=1;exitDx=0;exitDy=0;entryX=0.5;entryY=0;entryDx=0;entryDy=0;startArrow=classic;startFill=1;" parent="1" source="59_qnsPRVaMqmeDLjK7_-3" target="59_qnsPRVaMqmeDLjK7_-7" edge="1">
          <mxGeometry relative="1" as="geometry" />
        </mxCell>
        <mxCell id="59_qnsPRVaMqmeDLjK7_-18" style="edgeStyle=none;rounded=0;orthogonalLoop=1;jettySize=auto;html=1;exitX=1;exitY=0.5;exitDx=0;exitDy=0;startArrow=classic;startFill=1;" parent="1" source="59_qnsPRVaMqmeDLjK7_-3" target="59_qnsPRVaMqmeDLjK7_-4" edge="1">
          <mxGeometry relative="1" as="geometry" />
        </mxCell>
        <mxCell id="59_qnsPRVaMqmeDLjK7_-3" value="采购管理" style="ellipse;whiteSpace=wrap;html=1;" parent="1" vertex="1">
          <mxGeometry x="130" y="780" width="150" height="40" as="geometry" />
        </mxCell>
        <mxCell id="59_qnsPRVaMqmeDLjK7_-14" style="edgeStyle=orthogonalEdgeStyle;rounded=0;orthogonalLoop=1;jettySize=auto;html=1;exitX=1;exitY=0.5;exitDx=0;exitDy=0;entryX=0;entryY=0.5;entryDx=0;entryDy=0;startArrow=none;startFill=0;" parent="1" source="59_qnsPRVaMqmeDLjK7_-4" target="59_qnsPRVaMqmeDLjK7_-6" edge="1">
          <mxGeometry relative="1" as="geometry" />
        </mxCell>
        <mxCell id="59_qnsPRVaMqmeDLjK7_-20" style="edgeStyle=none;rounded=0;orthogonalLoop=1;jettySize=auto;html=1;exitX=0.5;exitY=1;exitDx=0;exitDy=0;entryX=0.5;entryY=0;entryDx=0;entryDy=0;startArrow=classic;startFill=1;" parent="1" source="59_qnsPRVaMqmeDLjK7_-4" target="59_qnsPRVaMqmeDLjK7_-8" edge="1">
          <mxGeometry relative="1" as="geometry" />
        </mxCell>
        <mxCell id="59_qnsPRVaMqmeDLjK7_-24" style="edgeStyle=none;rounded=0;orthogonalLoop=1;jettySize=auto;html=1;exitX=1;exitY=1;exitDx=0;exitDy=0;entryX=0.22;entryY=0.075;entryDx=0;entryDy=0;entryPerimeter=0;startArrow=classic;startFill=1;" parent="1" source="59_qnsPRVaMqmeDLjK7_-4" target="59_qnsPRVaMqmeDLjK7_-9" edge="1">
          <mxGeometry relative="1" as="geometry" />
        </mxCell>
        <mxCell id="59_qnsPRVaMqmeDLjK7_-4" value="销售管理" style="ellipse;whiteSpace=wrap;html=1;" parent="1" vertex="1">
          <mxGeometry x="350" y="780" width="150" height="40" as="geometry" />
        </mxCell>
        <mxCell id="59_qnsPRVaMqmeDLjK7_-15" style="rounded=0;orthogonalLoop=1;jettySize=auto;html=1;exitX=0;exitY=1;exitDx=0;exitDy=0;entryX=1;entryY=0;entryDx=0;entryDy=0;startArrow=none;startFill=0;" parent="1" source="59_qnsPRVaMqmeDLjK7_-6" target="59_qnsPRVaMqmeDLjK7_-8" edge="1">
          <mxGeometry relative="1" as="geometry" />
        </mxCell>
        <mxCell id="59_qnsPRVaMqmeDLjK7_-23" style="edgeStyle=none;rounded=0;orthogonalLoop=1;jettySize=auto;html=1;exitX=0.5;exitY=1;exitDx=0;exitDy=0;entryX=0.5;entryY=0;entryDx=0;entryDy=0;startArrow=classic;startFill=1;" parent="1" source="59_qnsPRVaMqmeDLjK7_-6" target="59_qnsPRVaMqmeDLjK7_-9" edge="1">
          <mxGeometry relative="1" as="geometry" />
        </mxCell>
        <mxCell id="59_qnsPRVaMqmeDLjK7_-6" value="物流管理" style="ellipse;whiteSpace=wrap;html=1;" parent="1" vertex="1">
          <mxGeometry x="580" y="780" width="150" height="40" as="geometry" />
        </mxCell>
        <mxCell id="59_qnsPRVaMqmeDLjK7_-12" style="edgeStyle=orthogonalEdgeStyle;rounded=0;orthogonalLoop=1;jettySize=auto;html=1;exitX=1;exitY=0.5;exitDx=0;exitDy=0;entryX=0;entryY=0.5;entryDx=0;entryDy=0;startArrow=none;startFill=0;" parent="1" source="59_qnsPRVaMqmeDLjK7_-7" target="59_qnsPRVaMqmeDLjK7_-8" edge="1">
          <mxGeometry relative="1" as="geometry" />
        </mxCell>
        <mxCell id="59_qnsPRVaMqmeDLjK7_-21" style="edgeStyle=none;rounded=0;orthogonalLoop=1;jettySize=auto;html=1;exitX=0.74;exitY=0;exitDx=0;exitDy=0;entryX=0;entryY=1;entryDx=0;entryDy=0;startArrow=classic;startFill=1;exitPerimeter=0;" parent="1" source="59_qnsPRVaMqmeDLjK7_-7" target="59_qnsPRVaMqmeDLjK7_-4" edge="1">
          <mxGeometry relative="1" as="geometry" />
        </mxCell>
        <mxCell id="59_qnsPRVaMqmeDLjK7_-22" style="edgeStyle=none;rounded=0;orthogonalLoop=1;jettySize=auto;html=1;exitX=1;exitY=0;exitDx=0;exitDy=0;entryX=0.06;entryY=0.8;entryDx=0;entryDy=0;entryPerimeter=0;startArrow=classic;startFill=1;" parent="1" source="59_qnsPRVaMqmeDLjK7_-7" target="59_qnsPRVaMqmeDLjK7_-6" edge="1">
          <mxGeometry relative="1" as="geometry" />
        </mxCell>
        <mxCell id="59_qnsPRVaMqmeDLjK7_-7" value="供应商管理" style="ellipse;whiteSpace=wrap;html=1;" parent="1" vertex="1">
          <mxGeometry x="130" y="920" width="150" height="40" as="geometry" />
        </mxCell>
        <mxCell id="59_qnsPRVaMqmeDLjK7_-10" style="edgeStyle=orthogonalEdgeStyle;rounded=0;orthogonalLoop=1;jettySize=auto;html=1;exitX=1;exitY=0.5;exitDx=0;exitDy=0;entryX=0;entryY=0.5;entryDx=0;entryDy=0;startArrow=classic;startFill=1;" parent="1" source="59_qnsPRVaMqmeDLjK7_-8" target="59_qnsPRVaMqmeDLjK7_-9" edge="1">
          <mxGeometry relative="1" as="geometry" />
        </mxCell>
        <mxCell id="59_qnsPRVaMqmeDLjK7_-19" style="edgeStyle=none;rounded=0;orthogonalLoop=1;jettySize=auto;html=1;exitX=0;exitY=0;exitDx=0;exitDy=0;entryX=0.713;entryY=1;entryDx=0;entryDy=0;entryPerimeter=0;startArrow=classic;startFill=1;" parent="1" source="59_qnsPRVaMqmeDLjK7_-8" target="59_qnsPRVaMqmeDLjK7_-3" edge="1">
          <mxGeometry relative="1" as="geometry" />
        </mxCell>
        <mxCell id="59_qnsPRVaMqmeDLjK7_-8" value="存货管理" style="ellipse;whiteSpace=wrap;html=1;" parent="1" vertex="1">
          <mxGeometry x="350" y="920" width="150" height="40" as="geometry" />
        </mxCell>
        <mxCell id="59_qnsPRVaMqmeDLjK7_-9" value="资产管理" style="ellipse;whiteSpace=wrap;html=1;" parent="1" vertex="1">
          <mxGeometry x="580" y="920" width="150" height="40" as="geometry" />
        </mxCell>
        <mxCell id="59_qnsPRVaMqmeDLjK7_-31" style="edgeStyle=none;rounded=0;orthogonalLoop=1;jettySize=auto;html=1;exitX=0.5;exitY=1;exitDx=0;exitDy=0;entryX=0.5;entryY=0;entryDx=0;entryDy=0;startArrow=classic;startFill=1;" parent="1" source="59_qnsPRVaMqmeDLjK7_-25" target="59_qnsPRVaMqmeDLjK7_-30" edge="1">
          <mxGeometry relative="1" as="geometry" />
        </mxCell>
        <mxCell id="59_qnsPRVaMqmeDLjK7_-35" style="edgeStyle=none;rounded=0;orthogonalLoop=1;jettySize=auto;html=1;exitX=1;exitY=1;exitDx=0;exitDy=0;entryX=0;entryY=0;entryDx=0;entryDy=0;startArrow=classic;startFill=1;" parent="1" source="59_qnsPRVaMqmeDLjK7_-25" target="59_qnsPRVaMqmeDLjK7_-28" edge="1">
          <mxGeometry relative="1" as="geometry" />
        </mxCell>
        <mxCell id="59_qnsPRVaMqmeDLjK7_-25" value="交换机" style="ellipse;whiteSpace=wrap;html=1;" parent="1" vertex="1">
          <mxGeometry x="-60" y="1140" width="170" height="50" as="geometry" />
        </mxCell>
        <mxCell id="59_qnsPRVaMqmeDLjK7_-33" style="edgeStyle=none;rounded=0;orthogonalLoop=1;jettySize=auto;html=1;exitX=1;exitY=1;exitDx=0;exitDy=0;entryX=0;entryY=0;entryDx=0;entryDy=0;startArrow=classic;startFill=1;" parent="1" source="59_qnsPRVaMqmeDLjK7_-26" target="59_qnsPRVaMqmeDLjK7_-25" edge="1">
          <mxGeometry relative="1" as="geometry" />
        </mxCell>
        <mxCell id="59_qnsPRVaMqmeDLjK7_-26" value="计算机 1" style="ellipse;whiteSpace=wrap;html=1;" parent="1" vertex="1">
          <mxGeometry x="-230" y="1030" width="170" height="50" as="geometry" />
        </mxCell>
        <mxCell id="59_qnsPRVaMqmeDLjK7_-34" style="edgeStyle=none;rounded=0;orthogonalLoop=1;jettySize=auto;html=1;exitX=0;exitY=1;exitDx=0;exitDy=0;entryX=1;entryY=0;entryDx=0;entryDy=0;startArrow=classic;startFill=1;" parent="1" source="59_qnsPRVaMqmeDLjK7_-27" target="59_qnsPRVaMqmeDLjK7_-25" edge="1">
          <mxGeometry relative="1" as="geometry" />
        </mxCell>
        <mxCell id="59_qnsPRVaMqmeDLjK7_-27" value="计算机 2" style="ellipse;whiteSpace=wrap;html=1;" parent="1" vertex="1">
          <mxGeometry x="80" y="1030" width="170" height="50" as="geometry" />
        </mxCell>
        <mxCell id="59_qnsPRVaMqmeDLjK7_-28" value="计算机 3" style="ellipse;whiteSpace=wrap;html=1;" parent="1" vertex="1">
          <mxGeometry x="160" y="1230" width="170" height="50" as="geometry" />
        </mxCell>
        <mxCell id="59_qnsPRVaMqmeDLjK7_-32" style="edgeStyle=none;rounded=0;orthogonalLoop=1;jettySize=auto;html=1;exitX=1;exitY=0;exitDx=0;exitDy=0;entryX=0;entryY=1;entryDx=0;entryDy=0;startArrow=classic;startFill=1;" parent="1" source="59_qnsPRVaMqmeDLjK7_-29" target="59_qnsPRVaMqmeDLjK7_-25" edge="1">
          <mxGeometry relative="1" as="geometry" />
        </mxCell>
        <mxCell id="59_qnsPRVaMqmeDLjK7_-29" value="计算机 5" style="ellipse;whiteSpace=wrap;html=1;" parent="1" vertex="1">
          <mxGeometry x="-290" y="1230" width="170" height="50" as="geometry" />
        </mxCell>
        <mxCell id="59_qnsPRVaMqmeDLjK7_-30" value="计算机 4" style="ellipse;whiteSpace=wrap;html=1;" parent="1" vertex="1">
          <mxGeometry x="-60" y="1310" width="170" height="50" as="geometry" />
        </mxCell>
        <mxCell id="59_qnsPRVaMqmeDLjK7_-40" style="edgeStyle=none;rounded=0;orthogonalLoop=1;jettySize=auto;html=1;exitX=0.5;exitY=1;exitDx=0;exitDy=0;entryX=0.5;entryY=0;entryDx=0;entryDy=0;startArrow=classic;startFill=1;" parent="1" source="59_qnsPRVaMqmeDLjK7_-36" target="59_qnsPRVaMqmeDLjK7_-39" edge="1">
          <mxGeometry relative="1" as="geometry" />
        </mxCell>
        <mxCell id="59_qnsPRVaMqmeDLjK7_-36" value="中介者" style="ellipse;whiteSpace=wrap;html=1;" parent="1" vertex="1">
          <mxGeometry x="515" y="1145" width="140" height="40" as="geometry" />
        </mxCell>
        <mxCell id="59_qnsPRVaMqmeDLjK7_-42" style="edgeStyle=none;rounded=0;orthogonalLoop=1;jettySize=auto;html=1;exitX=1;exitY=1;exitDx=0;exitDy=0;entryX=0;entryY=0;entryDx=0;entryDy=0;startArrow=classic;startFill=1;" parent="1" source="59_qnsPRVaMqmeDLjK7_-37" target="59_qnsPRVaMqmeDLjK7_-36" edge="1">
          <mxGeometry relative="1" as="geometry" />
        </mxCell>
        <mxCell id="59_qnsPRVaMqmeDLjK7_-37" value="采购管理" style="ellipse;whiteSpace=wrap;html=1;" parent="1" vertex="1">
          <mxGeometry x="375" y="1055" width="140" height="40" as="geometry" />
        </mxCell>
        <mxCell id="59_qnsPRVaMqmeDLjK7_-41" style="edgeStyle=none;rounded=0;orthogonalLoop=1;jettySize=auto;html=1;exitX=0;exitY=1;exitDx=0;exitDy=0;entryX=1;entryY=0;entryDx=0;entryDy=0;startArrow=classic;startFill=1;" parent="1" source="59_qnsPRVaMqmeDLjK7_-38" target="59_qnsPRVaMqmeDLjK7_-36" edge="1">
          <mxGeometry relative="1" as="geometry" />
        </mxCell>
        <mxCell id="59_qnsPRVaMqmeDLjK7_-38" value="销售管理" style="ellipse;whiteSpace=wrap;html=1;" parent="1" vertex="1">
          <mxGeometry x="660" y="1055" width="140" height="40" as="geometry" />
        </mxCell>
        <mxCell id="59_qnsPRVaMqmeDLjK7_-39" value="存货管理" style="ellipse;whiteSpace=wrap;html=1;" parent="1" vertex="1">
          <mxGeometry x="515" y="1235" width="140" height="40" as="geometry" />
        </mxCell>
        <mxCell id="59_qnsPRVaMqmeDLjK7_-43" value="AbstractMediator" style="swimlane;fontStyle=1;align=center;verticalAlign=top;childLayout=stackLayout;horizontal=1;startSize=26;horizontalStack=0;resizeParent=1;resizeParentMax=0;resizeLast=0;collapsible=1;marginBottom=0;" parent="1" vertex="1">
          <mxGeometry x="294" y="1410" width="240" height="130" as="geometry" />
        </mxCell>
        <mxCell id="59_qnsPRVaMqmeDLjK7_-44" value="# Purchase purchase&#xa;# Sale sale&#xa;+ Stock stock" style="text;strokeColor=none;fillColor=none;align=left;verticalAlign=top;spacingLeft=4;spacingRight=4;overflow=hidden;rotatable=0;points=[[0,0.5],[1,0.5]];portConstraint=eastwest;" parent="59_qnsPRVaMqmeDLjK7_-43" vertex="1">
          <mxGeometry y="26" width="240" height="54" as="geometry" />
        </mxCell>
        <mxCell id="59_qnsPRVaMqmeDLjK7_-45" value="" style="line;strokeWidth=1;fillColor=none;align=left;verticalAlign=middle;spacingTop=-1;spacingLeft=3;spacingRight=3;rotatable=0;labelPosition=right;points=[];portConstraint=eastwest;" parent="59_qnsPRVaMqmeDLjK7_-43" vertex="1">
          <mxGeometry y="80" width="240" height="8" as="geometry" />
        </mxCell>
        <mxCell id="59_qnsPRVaMqmeDLjK7_-46" value="+ AbstractMediator()&#xa;+ void execute(String str, Object...objects)" style="text;strokeColor=none;fillColor=none;align=left;verticalAlign=top;spacingLeft=4;spacingRight=4;overflow=hidden;rotatable=0;points=[[0,0.5],[1,0.5]];portConstraint=eastwest;" parent="59_qnsPRVaMqmeDLjK7_-43" vertex="1">
          <mxGeometry y="88" width="240" height="42" as="geometry" />
        </mxCell>
        <mxCell id="59_qnsPRVaMqmeDLjK7_-72" style="edgeStyle=orthogonalEdgeStyle;rounded=0;orthogonalLoop=1;jettySize=auto;html=1;exitX=0.5;exitY=0;exitDx=0;exitDy=0;entryX=0.5;entryY=1.024;entryDx=0;entryDy=0;entryPerimeter=0;startArrow=none;startFill=0;endArrow=block;endFill=0;" parent="1" source="59_qnsPRVaMqmeDLjK7_-51" target="59_qnsPRVaMqmeDLjK7_-46" edge="1">
          <mxGeometry relative="1" as="geometry" />
        </mxCell>
        <mxCell id="59_qnsPRVaMqmeDLjK7_-51" value="Mediator" style="swimlane;fontStyle=1;align=center;verticalAlign=top;childLayout=stackLayout;horizontal=1;startSize=26;horizontalStack=0;resizeParent=1;resizeParentMax=0;resizeLast=0;collapsible=1;marginBottom=0;" parent="1" vertex="1">
          <mxGeometry x="294" y="1570" width="240" height="60" as="geometry" />
        </mxCell>
        <mxCell id="59_qnsPRVaMqmeDLjK7_-53" value="" style="line;strokeWidth=1;fillColor=none;align=left;verticalAlign=middle;spacingTop=-1;spacingLeft=3;spacingRight=3;rotatable=0;labelPosition=right;points=[];portConstraint=eastwest;" parent="59_qnsPRVaMqmeDLjK7_-51" vertex="1">
          <mxGeometry y="26" width="240" height="8" as="geometry" />
        </mxCell>
        <mxCell id="59_qnsPRVaMqmeDLjK7_-54" value="+ void execute(String str, Object...objects)" style="text;strokeColor=none;fillColor=none;align=left;verticalAlign=top;spacingLeft=4;spacingRight=4;overflow=hidden;rotatable=0;points=[[0,0.5],[1,0.5]];portConstraint=eastwest;" parent="59_qnsPRVaMqmeDLjK7_-51" vertex="1">
          <mxGeometry y="34" width="240" height="26" as="geometry" />
        </mxCell>
        <mxCell id="59_qnsPRVaMqmeDLjK7_-55" value="Purchase" style="swimlane;fontStyle=1;align=center;verticalAlign=top;childLayout=stackLayout;horizontal=1;startSize=26;horizontalStack=0;resizeParent=1;resizeParentMax=0;resizeLast=0;collapsible=1;marginBottom=0;" parent="1" vertex="1">
          <mxGeometry x="14" y="1570" width="240" height="80" as="geometry" />
        </mxCell>
        <mxCell id="59_qnsPRVaMqmeDLjK7_-56" value="" style="line;strokeWidth=1;fillColor=none;align=left;verticalAlign=middle;spacingTop=-1;spacingLeft=3;spacingRight=3;rotatable=0;labelPosition=right;points=[];portConstraint=eastwest;" parent="59_qnsPRVaMqmeDLjK7_-55" vertex="1">
          <mxGeometry y="26" width="240" height="8" as="geometry" />
        </mxCell>
        <mxCell id="59_qnsPRVaMqmeDLjK7_-57" value="+ void buyMilkPowder(int number)&#xa;+ void refuseBuyMilkPowder()" style="text;strokeColor=none;fillColor=none;align=left;verticalAlign=top;spacingLeft=4;spacingRight=4;overflow=hidden;rotatable=0;points=[[0,0.5],[1,0.5]];portConstraint=eastwest;" parent="59_qnsPRVaMqmeDLjK7_-55" vertex="1">
          <mxGeometry y="34" width="240" height="46" as="geometry" />
        </mxCell>
        <mxCell id="59_qnsPRVaMqmeDLjK7_-58" value="Sale" style="swimlane;fontStyle=1;align=center;verticalAlign=top;childLayout=stackLayout;horizontal=1;startSize=26;horizontalStack=0;resizeParent=1;resizeParentMax=0;resizeLast=0;collapsible=1;marginBottom=0;" parent="1" vertex="1">
          <mxGeometry x="574" y="1570" width="240" height="90" as="geometry" />
        </mxCell>
        <mxCell id="59_qnsPRVaMqmeDLjK7_-59" value="" style="line;strokeWidth=1;fillColor=none;align=left;verticalAlign=middle;spacingTop=-1;spacingLeft=3;spacingRight=3;rotatable=0;labelPosition=right;points=[];portConstraint=eastwest;" parent="59_qnsPRVaMqmeDLjK7_-58" vertex="1">
          <mxGeometry y="26" width="240" height="8" as="geometry" />
        </mxCell>
        <mxCell id="59_qnsPRVaMqmeDLjK7_-60" value="+ void sellMilkPowder(int number)&#xa;+ int getSaleStatus()&#xa;+ void offSale()" style="text;strokeColor=none;fillColor=none;align=left;verticalAlign=top;spacingLeft=4;spacingRight=4;overflow=hidden;rotatable=0;points=[[0,0.5],[1,0.5]];portConstraint=eastwest;" parent="59_qnsPRVaMqmeDLjK7_-58" vertex="1">
          <mxGeometry y="34" width="240" height="56" as="geometry" />
        </mxCell>
        <mxCell id="59_qnsPRVaMqmeDLjK7_-77" style="edgeStyle=orthogonalEdgeStyle;rounded=0;orthogonalLoop=1;jettySize=auto;html=1;exitX=0.5;exitY=0;exitDx=0;exitDy=0;entryX=0.5;entryY=1.038;entryDx=0;entryDy=0;entryPerimeter=0;startArrow=none;startFill=0;endArrow=open;endFill=0;" parent="1" source="59_qnsPRVaMqmeDLjK7_-61" target="59_qnsPRVaMqmeDLjK7_-54" edge="1">
          <mxGeometry relative="1" as="geometry" />
        </mxCell>
        <mxCell id="59_qnsPRVaMqmeDLjK7_-61" value="Stock" style="swimlane;fontStyle=1;align=center;verticalAlign=top;childLayout=stackLayout;horizontal=1;startSize=26;horizontalStack=0;resizeParent=1;resizeParentMax=0;resizeLast=0;collapsible=1;marginBottom=0;" parent="1" vertex="1">
          <mxGeometry x="294" y="1680" width="240" height="110" as="geometry" />
        </mxCell>
        <mxCell id="59_qnsPRVaMqmeDLjK7_-62" value="" style="line;strokeWidth=1;fillColor=none;align=left;verticalAlign=middle;spacingTop=-1;spacingLeft=3;spacingRight=3;rotatable=0;labelPosition=right;points=[];portConstraint=eastwest;" parent="59_qnsPRVaMqmeDLjK7_-61" vertex="1">
          <mxGeometry y="26" width="240" height="8" as="geometry" />
        </mxCell>
        <mxCell id="59_qnsPRVaMqmeDLjK7_-63" value="+ void increase(int number)&#xa;+ void decrease(int number)&#xa;+ int getStockNumber()&#xa;+ void clearStock()" style="text;strokeColor=none;fillColor=none;align=left;verticalAlign=top;spacingLeft=4;spacingRight=4;overflow=hidden;rotatable=0;points=[[0,0.5],[1,0.5]];portConstraint=eastwest;" parent="59_qnsPRVaMqmeDLjK7_-61" vertex="1">
          <mxGeometry y="34" width="240" height="76" as="geometry" />
        </mxCell>
        <mxCell id="59_qnsPRVaMqmeDLjK7_-68" value="AbstractColleague" style="swimlane;fontStyle=1;align=center;verticalAlign=top;childLayout=stackLayout;horizontal=1;startSize=26;horizontalStack=0;resizeParent=1;resizeParentMax=0;resizeLast=0;collapsible=1;marginBottom=0;" parent="1" vertex="1">
          <mxGeometry x="276" y="1850" width="276" height="86" as="geometry" />
        </mxCell>
        <mxCell id="59_qnsPRVaMqmeDLjK7_-69" value="# AbstractMediator mediator" style="text;strokeColor=none;fillColor=none;align=left;verticalAlign=top;spacingLeft=4;spacingRight=4;overflow=hidden;rotatable=0;points=[[0,0.5],[1,0.5]];portConstraint=eastwest;" parent="59_qnsPRVaMqmeDLjK7_-68" vertex="1">
          <mxGeometry y="26" width="276" height="26" as="geometry" />
        </mxCell>
        <mxCell id="59_qnsPRVaMqmeDLjK7_-70" value="" style="line;strokeWidth=1;fillColor=none;align=left;verticalAlign=middle;spacingTop=-1;spacingLeft=3;spacingRight=3;rotatable=0;labelPosition=right;points=[];portConstraint=eastwest;" parent="59_qnsPRVaMqmeDLjK7_-68" vertex="1">
          <mxGeometry y="52" width="276" height="8" as="geometry" />
        </mxCell>
        <mxCell id="59_qnsPRVaMqmeDLjK7_-71" value="+ AbstractColleague(AbstractMediator _mediator)" style="text;strokeColor=none;fillColor=none;align=left;verticalAlign=top;spacingLeft=4;spacingRight=4;overflow=hidden;rotatable=0;points=[[0,0.5],[1,0.5]];portConstraint=eastwest;" parent="59_qnsPRVaMqmeDLjK7_-68" vertex="1">
          <mxGeometry y="60" width="276" height="26" as="geometry" />
        </mxCell>
        <mxCell id="59_qnsPRVaMqmeDLjK7_-74" style="edgeStyle=orthogonalEdgeStyle;rounded=0;orthogonalLoop=1;jettySize=auto;html=1;exitX=0.446;exitY=1;exitDx=0;exitDy=0;entryX=0;entryY=0.5;entryDx=0;entryDy=0;startArrow=none;startFill=0;endArrow=block;endFill=0;exitPerimeter=0;" parent="1" source="59_qnsPRVaMqmeDLjK7_-57" target="59_qnsPRVaMqmeDLjK7_-69" edge="1">
          <mxGeometry relative="1" as="geometry" />
        </mxCell>
        <mxCell id="59_qnsPRVaMqmeDLjK7_-75" style="edgeStyle=orthogonalEdgeStyle;rounded=0;orthogonalLoop=1;jettySize=auto;html=1;exitX=0.442;exitY=1;exitDx=0;exitDy=0;entryX=1;entryY=0.5;entryDx=0;entryDy=0;startArrow=none;startFill=0;endArrow=block;endFill=0;exitPerimeter=0;" parent="1" source="59_qnsPRVaMqmeDLjK7_-60" target="59_qnsPRVaMqmeDLjK7_-69" edge="1">
          <mxGeometry relative="1" as="geometry" />
        </mxCell>
        <mxCell id="59_qnsPRVaMqmeDLjK7_-76" style="edgeStyle=orthogonalEdgeStyle;rounded=0;orthogonalLoop=1;jettySize=auto;html=1;entryX=0.5;entryY=0;entryDx=0;entryDy=0;startArrow=none;startFill=0;endArrow=block;endFill=0;" parent="1" target="59_qnsPRVaMqmeDLjK7_-68" edge="1">
          <mxGeometry relative="1" as="geometry">
            <mxPoint x="414" y="1790" as="sourcePoint" />
          </mxGeometry>
        </mxCell>
        <mxCell id="59_qnsPRVaMqmeDLjK7_-78" style="edgeStyle=orthogonalEdgeStyle;rounded=0;orthogonalLoop=1;jettySize=auto;html=1;exitX=0;exitY=0.5;exitDx=0;exitDy=0;entryX=1;entryY=0.5;entryDx=0;entryDy=0;startArrow=none;startFill=0;endArrow=open;endFill=0;" parent="1" source="59_qnsPRVaMqmeDLjK7_-60" target="59_qnsPRVaMqmeDLjK7_-54" edge="1">
          <mxGeometry relative="1" as="geometry" />
        </mxCell>
        <mxCell id="59_qnsPRVaMqmeDLjK7_-79" style="edgeStyle=orthogonalEdgeStyle;rounded=0;orthogonalLoop=1;jettySize=auto;html=1;exitX=1;exitY=0.5;exitDx=0;exitDy=0;entryX=0;entryY=0.5;entryDx=0;entryDy=0;startArrow=none;startFill=0;endArrow=open;endFill=0;" parent="1" source="59_qnsPRVaMqmeDLjK7_-57" target="59_qnsPRVaMqmeDLjK7_-54" edge="1">
          <mxGeometry relative="1" as="geometry" />
        </mxCell>
        <mxCell id="O-w6x-_5WPtGjTvDignj-1" value="Mediator" style="swimlane;fontStyle=1;align=center;verticalAlign=top;childLayout=stackLayout;horizontal=1;startSize=26;horizontalStack=0;resizeParent=1;resizeParentMax=0;resizeLast=0;collapsible=1;marginBottom=0;whiteSpace=wrap;html=1;" vertex="1" parent="1">
          <mxGeometry x="320" y="2030" width="160" height="34" as="geometry" />
        </mxCell>
        <mxCell id="O-w6x-_5WPtGjTvDignj-3" value="" style="line;strokeWidth=1;fillColor=none;align=left;verticalAlign=middle;spacingTop=-1;spacingLeft=3;spacingRight=3;rotatable=0;labelPosition=right;points=[];portConstraint=eastwest;strokeColor=inherit;" vertex="1" parent="O-w6x-_5WPtGjTvDignj-1">
          <mxGeometry y="26" width="160" height="8" as="geometry" />
        </mxCell>
        <mxCell id="O-w6x-_5WPtGjTvDignj-10" style="edgeStyle=orthogonalEdgeStyle;rounded=0;orthogonalLoop=1;jettySize=auto;html=1;exitX=0;exitY=0.5;exitDx=0;exitDy=0;" edge="1" parent="1" source="O-w6x-_5WPtGjTvDignj-5" target="O-w6x-_5WPtGjTvDignj-1">
          <mxGeometry relative="1" as="geometry" />
        </mxCell>
        <mxCell id="O-w6x-_5WPtGjTvDignj-5" value="Colleague" style="swimlane;fontStyle=1;align=center;verticalAlign=top;childLayout=stackLayout;horizontal=1;startSize=26;horizontalStack=0;resizeParent=1;resizeParentMax=0;resizeLast=0;collapsible=1;marginBottom=0;whiteSpace=wrap;html=1;" vertex="1" parent="1">
          <mxGeometry x="560" y="2030" width="160" height="34" as="geometry" />
        </mxCell>
        <mxCell id="O-w6x-_5WPtGjTvDignj-6" value="" style="line;strokeWidth=1;fillColor=none;align=left;verticalAlign=middle;spacingTop=-1;spacingLeft=3;spacingRight=3;rotatable=0;labelPosition=right;points=[];portConstraint=eastwest;strokeColor=inherit;" vertex="1" parent="O-w6x-_5WPtGjTvDignj-5">
          <mxGeometry y="26" width="160" height="8" as="geometry" />
        </mxCell>
        <mxCell id="O-w6x-_5WPtGjTvDignj-9" style="edgeStyle=orthogonalEdgeStyle;rounded=0;orthogonalLoop=1;jettySize=auto;html=1;exitX=0.5;exitY=0;exitDx=0;exitDy=0;entryX=0.5;entryY=1;entryDx=0;entryDy=0;endArrow=block;endFill=0;" edge="1" parent="1" source="O-w6x-_5WPtGjTvDignj-7" target="O-w6x-_5WPtGjTvDignj-1">
          <mxGeometry relative="1" as="geometry" />
        </mxCell>
        <mxCell id="O-w6x-_5WPtGjTvDignj-7" value="ConcreteMediator" style="swimlane;fontStyle=1;align=center;verticalAlign=top;childLayout=stackLayout;horizontal=1;startSize=26;horizontalStack=0;resizeParent=1;resizeParentMax=0;resizeLast=0;collapsible=1;marginBottom=0;whiteSpace=wrap;html=1;" vertex="1" parent="1">
          <mxGeometry x="320" y="2170" width="160" height="34" as="geometry" />
        </mxCell>
        <mxCell id="O-w6x-_5WPtGjTvDignj-8" value="" style="line;strokeWidth=1;fillColor=none;align=left;verticalAlign=middle;spacingTop=-1;spacingLeft=3;spacingRight=3;rotatable=0;labelPosition=right;points=[];portConstraint=eastwest;strokeColor=inherit;" vertex="1" parent="O-w6x-_5WPtGjTvDignj-7">
          <mxGeometry y="26" width="160" height="8" as="geometry" />
        </mxCell>
      </root>
    </mxGraphModel>
  </diagram>
</mxfile>
